<?xml version="1.0" standalone="no"?>
<!DOCTYPE svg PUBLIC "-//W3C//DTD SVG 20010904//EN"
 "http://www.w3.org/TR/2001/REC-SVG-20010904/DTD/svg10.dtd">
<svg version="1.0" xmlns="http://www.w3.org/2000/svg"
 width="512.000000pt" height="512.000000pt" viewBox="0 0 512.000000 512.000000"
 preserveAspectRatio="xMidYMid meet">
<metadata>
Created by potrace 1.11, written by Peter Selinger 2001-2013
</metadata>
<g transform="translate(0.000000,512.000000) scale(0.100000,-0.100000)"
fill="#000000" stroke="none">
<path d="M284 4300 c-48 -19 -73 -105 -42 -148 7 -11 69 -79 138 -153 136
-146 201 -215 276 -298 27 -29 65 -70 84 -90 219 -231 245 -263 251 -310 7
-43 14 -96 24 -181 5 -37 11 -81 20 -143 6 -44 16 -121 20 -157 5 -41 36 -273
40 -300 2 -14 6 -45 9 -70 5 -43 42 -322 51 -385 2 -16 11 -88 20 -160 9 -71
18 -141 21 -155 2 -14 6 -47 9 -75 4 -27 8 -61 10 -75 2 -14 6 -45 10 -70 7
-57 15 -117 21 -153 7 -47 60 -180 89 -227 75 -121 183 -217 312 -276 142 -65
142 -65 1008 -61 429 1 793 6 808 10 224 59 391 192 483 386 20 41 38 82 40
93 2 10 6 28 9 41 6 23 29 179 39 257 4 25 8 56 10 70 6 31 16 107 31 235 4
28 8 61 10 75 3 14 7 45 10 69 3 25 6 45 8 46 1 2 43 5 92 8 179 11 343 89
460 220 55 62 126 190 140 252 18 77 27 137 50 320 3 22 7 56 10 75 2 19 7 60
11 90 4 30 9 64 12 75 8 32 11 279 3 290 -4 6 -13 35 -21 65 -32 131 -155 291
-283 368 -69 41 -164 81 -195 82 -31 0 -36 19 -24 92 24 138 25 195 6 227 -9
16 -28 34 -41 40 -29 13 -4006 15 -4039 1z m3862 -260 c-3 -36 -11 -90 -16
-120 -5 -30 -11 -67 -12 -82 -1 -16 -5 -28 -8 -28 -3 0 -5 -19 -6 -43 -1 -35
-32 -288 -49 -402 -3 -16 -16 -120 -30 -230 -14 -110 -28 -207 -30 -215 -2 -8
-7 -46 -11 -85 -3 -38 -8 -77 -9 -86 -2 -9 -6 -40 -10 -70 -3 -30 -10 -81 -15
-114 -5 -33 -12 -80 -15 -105 -3 -25 -10 -76 -15 -115 -6 -38 -12 -92 -15
-120 -8 -91 -18 -170 -30 -235 -2 -14 -7 -50 -10 -81 -3 -31 -7 -65 -9 -76 -2
-10 -7 -46 -11 -78 -4 -33 -9 -73 -12 -90 -2 -16 -6 -48 -9 -70 -2 -22 -10
-82 -18 -134 -31 -206 -159 -363 -344 -422 -63 -20 -89 -21 -460 -23 -217 -1
-396 2 -399 7 -4 7 -7 128 -4 215 l1 32 116 0 c114 0 116 0 145 29 16 16 30
38 30 48 7 103 -36 133 -184 131 -53 -1 -99 1 -102 4 -7 7 -10 246 -4 252 4 5
371 9 394 6 35 -6 95 5 122 21 46 29 60 78 36 126 -29 60 -41 63 -310 63
l-243 0 -1 43 c-1 39 0 159 1 200 0 15 12 17 100 17 119 0 159 13 182 60 19
39 10 93 -22 124 -18 19 -35 21 -140 24 l-120 4 -1 26 c-1 27 -1 184 0 213 1
15 27 16 246 16 210 0 248 3 270 17 26 17 53 62 49 84 -1 6 -2 20 -3 30 -1 22
-28 55 -56 69 -12 6 -116 11 -250 11 -126 1 -237 1 -245 2 -15 0 -15 5 -11
218 l1 42 104 0 c120 0 145 7 171 46 35 53 13 134 -42 155 -14 5 -71 9 -129 9
-92 0 -104 2 -105 18 -1 25 -1 142 0 179 l1 31 245 1 c154 0 252 4 265 11 47
25 69 97 43 140 -33 56 -41 57 -378 58 -338 0 -352 -2 -375 -58 -7 -18 -11
-441 -13 -1375 l-2 -1350 -245 0 c-167 0 -264 4 -305 13 -187 41 -348 198
-380 369 -3 16 -7 39 -10 52 -2 13 -7 49 -10 80 -3 31 -8 67 -10 81 -3 14 -7
48 -11 75 -3 28 -7 61 -9 74 -4 22 -11 73 -20 146 -2 17 -7 50 -10 75 -3 25
-8 61 -10 80 -2 19 -6 55 -10 80 -3 25 -10 79 -16 120 -5 41 -12 90 -14 108
-3 18 -7 54 -10 80 -3 26 -7 58 -10 72 -2 14 -7 50 -10 80 -3 30 -8 62 -10 70
-2 8 -7 43 -10 77 -3 34 -8 72 -10 85 -3 13 -7 47 -11 76 -3 29 -7 61 -9 70
-2 10 -6 45 -10 77 -4 33 -9 67 -10 75 -2 8 -6 47 -10 85 -4 39 -9 79 -11 90
-2 11 -7 43 -10 70 -8 70 -4 63 -197 270 -67 71 -147 156 -177 189 -30 33 -71
77 -90 97 -115 122 -136 145 -147 159 -10 13 189 15 1779 15 l1790 0 -6 -65z
m281 -334 c150 -72 258 -228 265 -381 2 -48 -10 -204 -17 -215 -1 -3 -6 -30
-9 -61 -4 -31 -8 -65 -10 -75 -2 -11 -7 -48 -11 -84 -4 -36 -9 -73 -11 -84 -2
-10 -6 -44 -10 -75 -13 -119 -54 -203 -140 -289 -82 -81 -152 -115 -274 -132
-64 -8 -82 -4 -76 19 3 9 8 45 11 81 3 36 8 72 10 80 2 8 6 33 9 55 12 92 26
203 31 250 4 28 8 57 10 65 2 8 7 40 10 70 4 30 20 154 36 275 16 121 32 243
35 270 4 28 8 57 9 65 2 8 8 57 15 108 10 73 16 92 29 92 9 0 49 -15 88 -34z"/>
</g>
</svg>
